<?xml version="1.0" encoding="UTF-8" standalone="no"?>
<!-- Created with Inkscape (http://www.inkscape.org/) -->

<svg
   width="31.360157mm"
   height="38.791676mm"
   viewBox="0 0 31.360157 38.791676"
   version="1.1"
   id="svg1"
   xml:space="preserve"
   inkscape:export-filename="advanced-yaml-logo.svg"
   inkscape:export-xdpi="96"
   inkscape:export-ydpi="96"
   inkscape:version="1.3 (0e150ed6c4, 2023-07-21)"
   sodipodi:docname="advanced_yaml_logo_graphic.svg"
   xmlns:inkscape="http://www.inkscape.org/namespaces/inkscape"
   xmlns:sodipodi="http://sodipodi.sourceforge.net/DTD/sodipodi-0.dtd"
   xmlns="http://www.w3.org/2000/svg"
   xmlns:svg="http://www.w3.org/2000/svg"><sodipodi:namedview
     id="namedview1"
     pagecolor="#ffffff"
     bordercolor="#000000"
     borderopacity="0.25"
     inkscape:showpageshadow="2"
     inkscape:pageopacity="0.0"
     inkscape:pagecheckerboard="0"
     inkscape:deskcolor="#d1d1d1"
     inkscape:document-units="mm"
     inkscape:export-bgcolor="#ffffff00"
     inkscape:zoom="11.588215"
     inkscape:cx="86.424006"
     inkscape:cy="126.29209"
     inkscape:window-width="1920"
     inkscape:window-height="1009"
     inkscape:window-x="1912"
     inkscape:window-y="-8"
     inkscape:window-maximized="1"
     inkscape:current-layer="layer1" /><defs
     id="defs1" /><g
     inkscape:label="Layer 1"
     inkscape:groupmode="layer"
     id="layer1"
     transform="translate(-4.0573411,-3.4872609)"><rect
       style="fill:#ffffff;fill-opacity:1;stroke-width:0.200776"
       id="rect7"
       width="25.121208"
       height="30.481262"
       x="7.6737618"
       y="6.9745235"
       rx="2.5597405" /><path
       style="fill:#000000;stroke-width:0.0579364"
       d="m 28.485795,22.880881 1.683661,-1.122439 V 15.659856 L 23.771551,9.3367804 11.911109,9.2993655 c -2.1660936,0.020391 -2.1667203,0.00938 -2.17005,2.2822935 v 21.962395 c -0.00766,2.032965 0.00332,2.04194 1.982976,2.095223 l 5.499953,-4e-6 c 5.278163,-0.783432 8.116181,-3.920232 11.037319,-7.969317 l 2.789961,-4.891193 -6.232107,3.918411 1.982979,0.523805 c -1.003071,1.5213 -4.202705,6.203338 -9.615567,6.659806 l -4.938732,0.07483 c -0.749316,0.01 -0.74866,0.01308 -0.748294,-0.523805 l -0.07483,-21.700492 c -0.0014,-0.72188 -0.007,-0.71354 0.710878,-0.710878 l 10.700589,-0.03742 0.03741,3.778878 c 0.07173,1.603997 0.04837,1.64614 1.870731,1.721075 l 3.704047,0.03741 z"
       id="path1"
       sodipodi:nodetypes="ccccccccccccccccccccccc" /><path
       style="fill:#09cbcc;fill-opacity:1;stroke-width:0.0579364"
       d="m 31.029993,29.881957 c 0.03741,-0.14966 -0.001,-7.061236 -0.001,-7.061236 -1.556614,2.780456 -1.295946,2.221064 -2.891729,4.852016 -3.546332,4.765327 -5.086312,5.947545 -10.88518,7.96172 5.760482,-0.111891 8.873817,-2.631078 12.05687,-7.2865 z"
       id="path2"
       sodipodi:nodetypes="cccccc" /><path
       style="fill:#09cbcc;fill-opacity:1;stroke-width:0.0579364"
       d="m 22.880009,35.641962 1.569157,-0.927092 1.492435,-0.834085 h 1.870732 c 0.471726,-0.0033 0.541215,-0.241354 0.598635,-0.486389 l 0.03741,-1.870731 c 0.415224,-0.516861 0.882941,-1.137729 1.122443,-1.38434 l 0.625089,0.598631 0.0023,2.731271 c 0.0057,1.721125 -0.368864,2.177547 -2.236192,2.170046 z"
       id="path3"
       sodipodi:nodetypes="ccccccccccc" /><path
       style="fill:#09cbcc;fill-opacity:1;stroke-width:0.0598685"
       d="m 14.613326,26.76128 8.070248,0.03741 c 1.169011,0.01668 1.140062,-1.481957 0.0799,-1.496586 h -8.110197 c -1.004286,0.0063 -1.010948,1.471754 -0.03995,1.459171 z"
       id="path4"
       sodipodi:nodetypes="ccccc" /><path
       style="fill:#1a1a1a;stroke-width:0.0579364"
       d="m 16.775012,23.206889 8.605368,-0.03741 c 0.883759,0.01038 0.859597,-1.463243 -0.07483,-1.459173 l -8.567954,-0.03741 c -0.949348,0.02361 -0.888607,1.559376 0.03741,1.533998 z"
       id="path5"
       sodipodi:nodetypes="ccccc" /><path
       style="fill:#09cbcc;fill-opacity:1;stroke-width:0.0504913"
       d="m 14.332539,19.615085 8.326067,-0.03741 c 0.736886,-0.04537 0.668665,-1.419446 -0.01421,-1.421757 l -8.340275,-0.05613 c -0.741458,0.03224 -0.69787,1.526723 0.02842,1.515294 z"
       id="path6"
       sodipodi:nodetypes="ccccc" /></g></svg>
